custom-analysis
version=1
nRows=4
nColumns=98
inDegrees=no

This file contains tibia displacement and acting force.

Units are S.I. units (seconds, meters, Newtons, ...)
Angles are in degrees.

endheader
time	APT	SIT	knee_angle	aACL_R_force	pACL_R_force	aPCL_R_force	pPCL_R_force	aMCL_R_force	mMCL_R_force	pMCL_R_force	aLCL_R_force	mLCL_R_force	pLCL_R_force	aPCL_L_force	pPCL_L_force	aMCL_L_force	aLCL_L_force	aACL_R_length	pACL_R_length	aPCL_R_length	pPCL_R_length	aMCL_R_length	mMCL_R_length	pMCL_R_length	aLCL_R_length	mLCL_R_length	pLCL_R_length	aPCL_L_length	pPCL_L_length	aMCL_L_length	aLCL_L_length	aACL_R_strain	pACL_R_strain	aPCL_R_strain	pPCL_R_strain	aMCL_R_strain	mMCL_R_strain	pMCL_R_strain	aLCL_R_strain	mLCL_R_strain	pLCL_R_strain	aPCL_L_strain	pPCL_L_strain	aMCL_L_strain	aLCL_L_strain	femur_lat_meniscii_r.femur_lat_r.force.X	femur_lat_meniscii_r.femur_lat_r.force.Y	femur_lat_meniscii_r.femur_lat_r.force.Z	femur_lat_meniscii_r.femur_lat_r.torque.X	femur_lat_meniscii_r.femur_lat_r.torque.Y	femur_lat_meniscii_r.femur_lat_r.torque.Z	femur_lat_meniscii_r.meniscus_lat_r.force.X	femur_lat_meniscii_r.meniscus_lat_r.force.Y	femur_lat_meniscii_r.meniscus_lat_r.force.Z	femur_lat_meniscii_r.meniscus_lat_r.torque.X	femur_lat_meniscii_r.meniscus_lat_r.torque.Y	femur_lat_meniscii_r.meniscus_lat_r.torque.Z	femur_med_meniscii_r.femur_med_r.force.X	femur_med_meniscii_r.femur_med_r.force.Y	femur_med_meniscii_r.femur_med_r.force.Z	femur_med_meniscii_r.femur_med_r.torque.X	femur_med_meniscii_r.femur_med_r.torque.Y	femur_med_meniscii_r.femur_med_r.torque.Z	femur_med_meniscii_r.meniscus_med_r.force.X	femur_med_meniscii_r.meniscus_med_r.force.Y	femur_med_meniscii_r.meniscus_med_r.force.Z	femur_med_meniscii_r.meniscus_med_r.torque.X	femur_med_meniscii_r.meniscus_med_r.torque.Y	femur_med_meniscii_r.meniscus_med_r.torque.Z	femur_med_tibia_r.tibia_upper_r.force.X	femur_med_tibia_r.tibia_upper_r.force.Y	femur_med_tibia_r.tibia_upper_r.force.Z	femur_med_tibia_r.tibia_upper_r.torque.X	femur_med_tibia_r.tibia_upper_r.torque.Y	femur_med_tibia_r.tibia_upper_r.torque.Z	femur_med_tibia_r.femur_med_r.force.X	femur_med_tibia_r.femur_med_r.force.Y	femur_med_tibia_r.femur_med_r.force.Z	femur_med_tibia_r.femur_med_r.torque.X	femur_med_tibia_r.femur_med_r.torque.Y	femur_med_tibia_r.femur_med_r.torque.Z	femur_lat_tibia_r.tibia_upper_r.force.X	femur_lat_tibia_r.tibia_upper_r.force.Y	femur_lat_tibia_r.tibia_upper_r.force.Z	femur_lat_tibia_r.tibia_upper_r.torque.X	femur_lat_tibia_r.tibia_upper_r.torque.Y	femur_lat_tibia_r.tibia_upper_r.torque.Z	femur_lat_tibia_r.femur_lat_r.force.X	femur_lat_tibia_r.femur_lat_r.force.Y	femur_lat_tibia_r.femur_lat_r.force.Z	femur_lat_tibia_r.femur_lat_r.torque.X	femur_lat_tibia_r.femur_lat_r.torque.Y	femur_lat_tibia_r.femur_lat_r.torque.Z	femur_lat_meniscii_force_r	femur_med_meniscii_force_r	femur_lat_tibia_force_r	femur_med_tibia_force_r
      0.16733645	      0.01298952	      0.01785446	     58.45219232	     -4.19403141	      0.00000000	    609.42966175	    392.26672233	      0.00000000	      0.00000000	      0.00000000	      0.00000000	      0.00000000	      0.00000000	      0.00000000	      0.00000000	      0.00000001	      0.00000000	      0.03112438	      0.02386080	      0.03512746	      0.03254081	      0.05968766	      0.05924375	      0.05626513	      0.05239907	      0.04760406	      0.04269427	      0.01525851	      0.01651186	      0.06550154	      0.04489616	      0.00383419	     -0.04780370	      0.12967117	      0.08876557	     -0.00565310	     -0.00919419	     -0.04193692	     -0.06392115	     -0.15473644	     -0.18433189	      0.00000079	     -0.32847694	      0.00000060	     -0.00000086	    105.17458528	    166.79473042	     19.78543433	    -11.97520939	      2.55064275	     41.28882664	   -105.17458528	   -166.79473042	    -19.78543433	      4.58740005	     -3.13332639	      2.89510840	     24.32148999	     19.45133050	     10.47118741	     -3.77956059	     -0.54726332	      9.75680449	    -24.32148999	    -19.45133050	    -10.47118741	     -0.23845811	      0.28811959	      0.05725840	   -800.30174450	   -694.19512638	    226.95229578	    -15.91338745	     17.98768882	     -1.09872469	    800.30174450	    694.19512638	   -226.95229578	    104.75265346	    -14.45633247	    325.17418592	      0.00000000	      0.00000000	      0.00000000	      0.00000000	      0.00000000	      0.00000000	      0.00000000	      0.00000000	      0.00000000	      0.00000000	      0.00000000	      0.00000000	    198.17577777	     32.85627641	      0.00000000	   1083.46532030
      0.16765787	      0.01300816	      0.01791671	     58.62578563	     -4.16362022	      0.00000000	    612.67344532	    393.90117225	      0.00000000	      0.00000000	      0.00000000	      0.00000000	      0.00000000	      0.00000000	      0.00000000	      0.00000000	      0.00000001	      0.00000000	      0.03112085	      0.02385931	      0.03514626	      0.03255186	      0.05970396	      0.05924734	      0.05626069	      0.05238703	      0.04758478	      0.04267138	      0.01525851	      0.01651186	      0.06550154	      0.04489616	      0.00372037	     -0.04786324	      0.13027559	      0.08913545	     -0.00538162	     -0.00913415	     -0.04201256	     -0.06413627	     -0.15507874	     -0.18476928	      0.00000079	     -0.32847694	      0.00000060	     -0.00000086	    105.55134477	    167.83768565	     20.05685508	    -12.11425265	      2.56023672	     41.42262480	   -105.55134477	   -167.83768565	    -20.05685508	      4.62300567	     -3.15094266	      2.94394743	     24.36709283	     19.12598031	     10.28511061	     -3.71247982	     -0.54746998	      9.77499549	    -24.36709283	    -19.12598031	    -10.28511061	     -0.23451392	      0.29145822	      0.05214614	   -803.26012392	   -693.97930519	    228.16359021	    -15.91013821	     18.07567266	     -1.04369238	    803.26012392	    693.97930519	   -228.16359021	    105.23214107	    -14.51420039	    326.33832448	      0.00000000	      0.00000000	      0.00000000	      0.00000000	      0.00000000	      0.00000000	      0.00000000	      0.00000000	      0.00000000	      0.00000000	      0.00000000	      0.00000000	    199.28083837	     32.63957469	      0.00000000	   1085.76826561
      0.16782890	      0.01301802	      0.01794985	     58.71815729	     -4.10740293	      0.00000000	    614.38009994	    394.73654200	      0.00000000	      0.00000000	      0.00000000	      0.00000000	      0.00000000	      0.00000000	      0.00000000	      0.00000000	      0.00000001	      0.00000000	      0.03111900	      0.02385855	      0.03515623	      0.03255773	      0.05971263	      0.05924927	      0.05625838	      0.05238057	      0.04757448	      0.04265917	      0.01525851	      0.01651186	      0.06550154	      0.04489616	      0.00366058	     -0.04789348	      0.13059610	      0.08933178	     -0.00523708	     -0.00910176	     -0.04205187	     -0.06425177	     -0.15526162	     -0.18500244	      0.00000079	     -0.32847694	      0.00000060	     -0.00000086	    105.92027532	    168.01013161	     20.10511906	    -12.14078612	      2.56784911	     41.56769382	   -105.92027532	   -168.01013161	    -20.10511906	      4.63107991	     -3.16106947	      2.95316568	     24.49602926	     19.03974350	     10.17247109	     -3.66898562	     -0.55031080	      9.82660314	    -24.49602926	    -19.03974350	    -10.17247109	     -0.23480258	      0.29609735	      0.04980428	   -805.27175210	   -693.01678955	    227.62484631	    -15.86423845	     18.09084826	     -1.05228956	    805.27175210	    693.01678955	   -227.62484631	    104.98427326	    -14.53911035	    327.14700982	      0.00000000	      0.00000000	      0.00000000	      0.00000000	      0.00000000	      0.00000000	      0.00000000	      0.00000000	      0.00000000	      0.00000000	      0.00000000	      0.00000000	    199.62646333	     32.65036677	      0.00000000	   1086.53022783
      0.16811677	      0.01303453	      0.01800565	     58.87365543	     -4.06244664	      0.00000000	    617.25664226	    396.18423186	      0.00000000	      0.00000000	      0.00000000	      0.00000000	      0.00000000	      0.00000000	      0.00000000	      0.00000000	      0.00000001	      0.00000000	      0.03111592	      0.02385733	      0.03517294	      0.03256758	      0.05972724	      0.05925257	      0.05625458	      0.05236960	      0.04755709	      0.04263860	      0.01525851	      0.01651186	      0.06550154	      0.04489616	      0.00356132	     -0.04794219	      0.13113378	      0.08966148	     -0.00499370	     -0.00904656	     -0.04211658	     -0.06444763	     -0.15557047	     -0.18539546	      0.00000079	     -0.32847694	      0.00000060	     -0.00000086	    106.87691439	    167.20599026	     20.15100870	    -12.14097041	      2.58567182	     41.95985031	   -106.87691439	   -167.20599026	    -20.15100870	      4.61212631	     -3.18291580	      2.92735170	     24.80755982	     18.99972921	     10.09553248	     -3.63788204	     -0.55954531	      9.95514719	    -24.80755982	    -18.99972921	    -10.09553248	     -0.23657625	      0.30583090	      0.04297436	   -808.92374581	   -690.12781606	    226.89066783	    -15.77371749	     18.12469476	     -1.11320447	    808.92374581	    690.12781606	   -226.89066783	    104.61852711	    -14.58621835	    328.63076127	      0.00000000	      0.00000000	      0.00000000	      0.00000000	      0.00000000	      0.00000000	      0.00000000	      0.00000000	      0.00000000	      0.00000000	      0.00000000	      0.00000000	    199.46573931	     32.83785180	      0.00000000	   1087.25038707
